<mxfile host="app.diagrams.net" modified="2024-04-20T14:17:23.943Z" agent="Mozilla/5.0 (Windows NT 10.0; Win64; x64) AppleWebKit/537.36 (KHTML, like Gecko) Chrome/117.0.0.0 Safari/537.36 Edg/117.0.2045.43" etag="B4UMfkX3wKkVs1S9nPCI" version="24.2.7" type="github">
  <diagram name="PÃ¡gina-1" id="kCTev81q7aybA59EAh-H">
    <mxGraphModel dx="1701" dy="948" grid="1" gridSize="10" guides="1" tooltips="1" connect="1" arrows="1" fold="1" page="1" pageScale="1" pageWidth="827" pageHeight="1169" math="0" shadow="0">
      <root>
        <mxCell id="0" />
        <mxCell id="1" parent="0" />
        <mxCell id="BX1oHqAipi8GrVUZQ88X-1" value="" style="edgeStyle=orthogonalEdgeStyle;rounded=0;orthogonalLoop=1;jettySize=auto;html=1;entryX=0.5;entryY=1;entryDx=0;entryDy=0;endArrow=none;endFill=0;" edge="1" parent="1" source="BX1oHqAipi8GrVUZQ88X-3" target="BX1oHqAipi8GrVUZQ88X-5">
          <mxGeometry relative="1" as="geometry">
            <mxPoint x="374" y="230" as="targetPoint" />
          </mxGeometry>
        </mxCell>
        <mxCell id="BX1oHqAipi8GrVUZQ88X-2" style="edgeStyle=orthogonalEdgeStyle;rounded=0;orthogonalLoop=1;jettySize=auto;html=1;endArrow=none;endFill=0;" edge="1" parent="1" source="BX1oHqAipi8GrVUZQ88X-3" target="BX1oHqAipi8GrVUZQ88X-11">
          <mxGeometry relative="1" as="geometry">
            <mxPoint x="320" y="380" as="targetPoint" />
          </mxGeometry>
        </mxCell>
        <mxCell id="BX1oHqAipi8GrVUZQ88X-3" value="Cliente" style="shape=umlActor;verticalLabelPosition=bottom;verticalAlign=top;html=1;outlineConnect=0;" vertex="1" parent="1">
          <mxGeometry x="90" y="280" width="30" height="60" as="geometry" />
        </mxCell>
        <mxCell id="BX1oHqAipi8GrVUZQ88X-4" style="edgeStyle=orthogonalEdgeStyle;rounded=0;orthogonalLoop=1;jettySize=auto;html=1;entryX=0;entryY=0.5;entryDx=0;entryDy=0;endArrow=none;endFill=0;" edge="1" parent="1" source="BX1oHqAipi8GrVUZQ88X-5" target="BX1oHqAipi8GrVUZQ88X-9">
          <mxGeometry relative="1" as="geometry" />
        </mxCell>
        <mxCell id="BX1oHqAipi8GrVUZQ88X-5" value="Incidencias" style="ellipse;whiteSpace=wrap;html=1;" vertex="1" parent="1">
          <mxGeometry x="260" y="200" width="110" height="60" as="geometry" />
        </mxCell>
        <mxCell id="BX1oHqAipi8GrVUZQ88X-6" style="edgeStyle=orthogonalEdgeStyle;rounded=0;orthogonalLoop=1;jettySize=auto;html=1;entryX=1;entryY=0.5;entryDx=0;entryDy=0;endArrow=none;endFill=0;" edge="1" parent="1" source="BX1oHqAipi8GrVUZQ88X-8" target="BX1oHqAipi8GrVUZQ88X-9">
          <mxGeometry relative="1" as="geometry" />
        </mxCell>
        <mxCell id="BX1oHqAipi8GrVUZQ88X-7" style="edgeStyle=orthogonalEdgeStyle;rounded=0;orthogonalLoop=1;jettySize=auto;html=1;exitX=0;exitY=1;exitDx=0;exitDy=0;exitPerimeter=0;entryX=1;entryY=0.5;entryDx=0;entryDy=0;endArrow=none;endFill=0;" edge="1" parent="1" source="BX1oHqAipi8GrVUZQ88X-8" target="BX1oHqAipi8GrVUZQ88X-12">
          <mxGeometry relative="1" as="geometry" />
        </mxCell>
        <mxCell id="BX1oHqAipi8GrVUZQ88X-8" value="Gimnasio" style="shape=umlActor;verticalLabelPosition=bottom;verticalAlign=top;html=1;outlineConnect=0;" vertex="1" parent="1">
          <mxGeometry x="630" y="280" width="30" height="60" as="geometry" />
        </mxCell>
        <mxCell id="BX1oHqAipi8GrVUZQ88X-9" value="Registrar Incidencias" style="ellipse;whiteSpace=wrap;html=1;" vertex="1" parent="1">
          <mxGeometry x="450" y="200" width="110" height="60" as="geometry" />
        </mxCell>
        <mxCell id="BX1oHqAipi8GrVUZQ88X-10" style="edgeStyle=orthogonalEdgeStyle;rounded=0;orthogonalLoop=1;jettySize=auto;html=1;exitX=1;exitY=0.5;exitDx=0;exitDy=0;entryX=0;entryY=0.5;entryDx=0;entryDy=0;endArrow=none;endFill=0;" edge="1" parent="1" source="BX1oHqAipi8GrVUZQ88X-11" target="BX1oHqAipi8GrVUZQ88X-12">
          <mxGeometry relative="1" as="geometry" />
        </mxCell>
        <mxCell id="BX1oHqAipi8GrVUZQ88X-11" value="Opiniones" style="ellipse;whiteSpace=wrap;html=1;" vertex="1" parent="1">
          <mxGeometry x="260" y="360" width="110" height="60" as="geometry" />
        </mxCell>
        <mxCell id="BX1oHqAipi8GrVUZQ88X-12" value="Registrar Opiniones" style="ellipse;whiteSpace=wrap;html=1;" vertex="1" parent="1">
          <mxGeometry x="440" y="360" width="110" height="60" as="geometry" />
        </mxCell>
      </root>
    </mxGraphModel>
  </diagram>
</mxfile>
